<svg id="Слой_3" data-name="Слой 3" xmlns="http://www.w3.org/2000/svg" viewBox="0 0 539.59 56.29"><defs><style>.cls-1{fill:#01386f;fill-rule:evenodd;}</style></defs><path class="cls-1" d="M189.4.25A16.15,16.15,0,0,0,174.59,15.3c-.3,7.28-1.09,14.89,1.21,21.93,4.74,12.36,24.66,13.43,31.09,2.08,2.89-4.83,2.45-10.66,2.56-16.07,0-5.32.27-11.15-2.87-15.75C203,1.85,195.83-.66,189.4.25ZM197,33.77c-1.78,3.94-8.44,4.44-10.2.24-1.75-4.74-1.27-9.94-1.16-14.9.34-3,.5-6.72,3.51-8.27a9.43,9.43,0,0,1,5.11-.13c3.49,1.74,3.75,6.15,3.79,9.57C197.89,24.77,198.72,29.48,197,33.77Z" transform="translate(0.06)"/><path class="cls-1" d="M19.76.67c-6.6,0-13.2,0-19.8,0C0,16,0,31.34-.06,46.67c3.78,0,7.56,0,11.35.09.15-5.44,0-10.88.08-16.31,5,0,10.31.5,14.88-1.91A14.44,14.44,0,0,0,34,14.3C33.77,7,27.1.54,19.76.67Zm2,17.65c-2.77,2.72-7,1.52-10.43,1.74,0-3.08,0-6.16,0-9.24,2.75.12,5.62-.42,8.3.35A4.77,4.77,0,0,1,21.77,18.32Z" transform="translate(0.06)"/><path class="cls-1" d="M77.54,19.29c.23-5-1-10.48-4.71-14.09C68.11.27,60.56-.94,54.18.89c-7.1,2-11.77,9.1-11.69,16.34.17,8.06-1.65,17.53,4.08,24.19A15.73,15.73,0,0,0,57.34,47c5.24.59,10.53-.39,14.58-4a15.54,15.54,0,0,0,5-8.58C78,29.46,77.35,24.33,77.54,19.29ZM66.09,29.18a15.38,15.38,0,0,1-.94,4.59c-2.21,4.85-9.73,3.89-10.74-1a52.88,52.88,0,0,1,.1-18.65c1.29-4.77,9-5.11,10.7-.51C66.64,18.66,66.44,24,66.09,29.18Z" transform="translate(0.06)"/><path class="cls-1" d="M155.14,21.46c4.44-6.89,8.63-13.95,13.29-20.7C164,.7,159.56.48,155.14.79c-4.24,7-8,14.22-12.22,21.25-.09-7.11,0-14.23,0-21.34-3.8,0-7.6-.06-11.4,0,.05,15.3,0,30.6,0,45.9,3.79,0,7.58,0,11.37,0,0-7.86-.1-15.72.09-23.58,4.6,7.81,8.81,15.84,13.41,23.65,4.46-.09,8.92,0,13.39-.09-4.83-8-9.77-15.89-14.51-23.9C155.22,22.42,155.16,21.78,155.14,21.46Z" transform="translate(0.06)"/><path class="cls-1" d="M252.39.67l-10.5,19.79L231.87.68,220.51.74c.17,15.31,0,30.63.07,45.95,3.82,0,7.63,0,11.45,0,0-6.91-.11-13.83,0-20.74L238.27,36q3.78,0,7.58,0l6.41-11c.16,7.22.06,14.45.05,21.67,3.74,0,7.49,0,11.23,0q-.14-23,0-45.95C259.83.66,256.11.67,252.39.67Z" transform="translate(0.06)"/><path class="cls-1" d="M299.88.68c.09,5.81,0,11.63.07,17.45-4.07.25-8.14.18-12.21.16q0-8.8,0-17.62c-3.91,0-7.82,0-11.73,0,0,15.32.09,30.64,0,46,3.91.06,7.83,0,11.75,0,0-6.06,0-12.12,0-18.17,4.07,0,8.15-.13,12.22.15-.09,6,0,12-.09,18,3.74,0,7.49,0,11.24,0q0-23,0-46C307.37.66,303.62.66,299.88.68Z" transform="translate(0.06)"/><path class="cls-1" d="M335.63.67c-5.43,15.38-11.1,30.68-16.74,46,4,0,8.08,0,12.13,0,.75-2.28,1.51-4.57,2.3-6.84,4.59,0,9.18.07,13.77,0,.87,2.26,1.58,4.57,2.25,6.9q6,0,12.09,0c-5.57-15.28-11.35-30.49-16.6-45.89C341.76.65,338.69.64,335.63.67Zm.64,30c1.17-3.5,2.56-6.93,3.45-10.52l1.24-1c.78,3.94,2.38,7.64,3.32,11.54C341.61,30.69,338.94,30.68,336.27,30.64Z" transform="translate(0.06)"/><path class="cls-1" d="M404,36.7c0-12,0-24,0-36-9.88-.11-19.75,0-29.63-.07.21,12.13-.38,24.48-4.51,36l-4.63,0c0,6.53,0,13.06,0,19.59h11.08c0-3.22,0-6.43,0-9.65,7.33.09,14.67,0,22,0v9.6h11.1c0-6.53,0-13.05,0-19.58C407.66,36.7,405.83,36.69,404,36.7Zm-11.18,0c-3.71.05-7.41.06-11.12,0,2.52-8.44,4.21-17.17,3.66-26q3.72,0,7.47,0C392.83,19.34,392.85,28,392.83,36.66Z" transform="translate(0.06)"/><path class="cls-1" d="M443.85,22.8c4.44-3.09,6.63-9.09,4.36-14.16C445.34,2,437.42-.27,430.74,0c-3.05.65-6.25,1.24-8.79,3.18C418,5.9,415.87,10.41,415,15c3.87,0,7.74,0,11.61-.1.74-4,5.94-6.64,9.31-4,2.75,1.63,2,6.61-1.2,7.18-2.73.36-5.5.18-8.24.28q0,4.65,0,9.3a44.62,44.62,0,0,1,6.94.24c2.79.42,3.94.6,4.56,3.49a4.4,4.4,0,0,1-1.5,4.66c-3.59,2.37-8.95.72-10.2-3.59-3.75,0-7.51,0-11.25-.07A16.8,16.8,0,0,0,423.26,45c4,2.29,8.88,2.31,13.38,1.82,6.43-.72,12.79-5.84,13-12.65C450.3,29.54,447.7,25.2,443.85,22.8Z" transform="translate(0.06)"/><path class="cls-1" d="M489.75,5.33C485.09.39,477.49-1,471.13.88a15.8,15.8,0,0,0-10.43,9.17c-1.46,3.89-1.57,8.11-1.64,12.21,0,5.55-.26,11.44,2.36,16.53,5.91,11.17,24.84,11.26,30.67,0a18.24,18.24,0,0,0,2.11-7.61c.36-4.59.49-15.95-1-20.19A14.71,14.71,0,0,0,489.75,5.33ZM482.94,29c-.32,3.33-1.12,7.86-5.5,7.91-2.51,0-5.06-.68-6-3.36A48,48,0,0,1,471.41,14c1.41-4.69,9.09-4.86,10.65-.22A42.25,42.25,0,0,1,482.94,29Z" transform="translate(0.06)"/><path class="cls-1" d="M537.43,7.58A14.55,14.55,0,0,0,524.74.66c-6.45,0-12.9,0-19.34,0q.06,23,0,46c3.86,0,7.72,0,11.58,0,0-5.39,0-10.79,0-16.18,5.9.07,12.56.49,17.36-3.6C540,22.4,541,13.64,537.43,7.58ZM527.36,18.07C524.8,20.7,520.5,20,517,20.1c0-3.11,0-6.21,0-9.32,3.52.05,7.84-.74,10.41,2A4.25,4.25,0,0,1,527.36,18.07Z" transform="translate(0.06)"/><path class="cls-1" d="M104.25,36.86c-2.34-.2-4.51-1.41-5-4a49.35,49.35,0,0,1-.14-17.81,5.59,5.59,0,0,1,5.58-4.75c3.43.07,5.63,1.26,6.12,5,3.86,0,7.72,0,11.59,0-1.07-4.72-3.1-9.65-7.35-12.34C110.32-.3,104.1.06,98.66,1c-4.45,1.61-8.48,5-10.12,9.5-2.28,6.37-1.11,13.27-1.32,19.89A16.77,16.77,0,0,0,99.74,46.63c5.08.82,10.73.75,15.14-2.23,4.39-2.63,6.49-7.65,7.57-12.43q-5.81,0-11.61,0C109.94,35.36,107.73,37.16,104.25,36.86Z" transform="translate(0.06)"/></svg>